<?xml version="1.0" encoding="UTF-8" standalone="no"?>
<!-- Created with Inkscape (http://www.inkscape.org/) -->

<svg
   width="658.68549mm"
   height="118.94092mm"
   viewBox="0 0 658.68566 118.94092"
   version="1.1"
   id="svg1"
   xml:space="preserve"
   inkscape:version="1.3.2 (091e20e, 2023-11-25, custom)"
   sodipodi:docname="5 estrelas.svg"
   xmlns:inkscape="http://www.inkscape.org/namespaces/inkscape"
   xmlns:sodipodi="http://sodipodi.sourceforge.net/DTD/sodipodi-0.dtd"
   xmlns="http://www.w3.org/2000/svg"
   xmlns:svg="http://www.w3.org/2000/svg"><sodipodi:namedview
     id="namedview1"
     pagecolor="#ffffff"
     bordercolor="#000000"
     borderopacity="0.25"
     inkscape:showpageshadow="2"
     inkscape:pageopacity="0.0"
     inkscape:pagecheckerboard="0"
     inkscape:deskcolor="#d1d1d1"
     inkscape:document-units="mm"
     inkscape:zoom="0.72426347"
     inkscape:cx="1317.2002"
     inkscape:cy="271.31011"
     inkscape:window-width="2560"
     inkscape:window-height="1009"
     inkscape:window-x="-8"
     inkscape:window-y="-8"
     inkscape:window-maximized="1"
     inkscape:current-layer="layer1" /><defs
     id="defs1" /><g
     inkscape:label="Camada 1"
     inkscape:groupmode="layer"
     id="layer1"
     transform="translate(-1.1650264,-80.231871)"><path
       d="m 101.16641,198.99479 a 4.2333333,4.2333333 0 0 1 -2.484434,-0.79375 L 64.653916,173.53129 30.62585,198.20104 a 4.2333333,4.2333333 0 0 1 -6.495521,-4.78367 l 13.2715,-39.30914 -34.3958334,-23.5876 a 4.2333333,4.2333333 0 0 1 2.38125,-7.72584 H 47.821121 L 60.626954,83.385108 a 4.2333333,4.2333333 0 0 1 8.053912,0 l 12.80584,39.422912 h 42.433874 a 4.2333333,4.2333333 0 0 1 2.39448,7.72584 l -34.409064,23.57437 13.263564,39.29856 a 4.2333333,4.2333333 0 0 1 -4.00315,5.588 z"
       id="path1"
       style="stroke-width:0.264583;fill:#0367a5;fill-opacity:1" /><path
       d="m 233.70618,199.16006 a 4.2333333,4.2333333 0 0 1 -2.48443,-0.79375 l -34.02806,-24.66975 -34.02807,24.66975 a 4.2333333,4.2333333 0 0 1 -6.49552,-4.78367 l 13.2715,-39.30914 -34.39583,-23.5876 a 4.2333333,4.2333333 0 0 1 2.38125,-7.72584 h 42.43387 l 12.80584,-39.409683 a 4.2333333,4.2333333 0 0 1 8.05391,0 l 12.80584,39.422913 h 42.43387 a 4.2333333,4.2333333 0 0 1 2.39448,7.72584 l -34.40906,23.57437 13.26356,39.29856 a 4.2333333,4.2333333 0 0 1 -4.00315,5.588 z"
       id="path1-1"
       style="stroke-width:0.264583;fill:#0367a5;fill-opacity:1" /><path
       d="m 366.86947,198.76923 a 4.2333333,4.2333333 0 0 1 -2.48443,-0.79375 l -34.02806,-24.66975 -34.02807,24.66975 a 4.2333333,4.2333333 0 0 1 -6.49552,-4.78367 l 13.2715,-39.30914 -34.39583,-23.5876 a 4.2333333,4.2333333 0 0 1 2.38125,-7.72584 h 42.43387 l 12.80584,-39.409684 a 4.2333333,4.2333333 0 0 1 8.05391,0 l 12.80584,39.422914 h 42.43387 a 4.2333333,4.2333333 0 0 1 2.39448,7.72584 l -34.40906,23.57437 13.26356,39.29856 a 4.2333333,4.2333333 0 0 1 -4.00315,5.588 z"
       id="path1-1-0"
       style="stroke-width:0.264583;fill:#0367a5;fill-opacity:1" /><path
       d="m 499.44315,198.88966 a 4.2333333,4.2333333 0 0 1 -2.48443,-0.79375 l -34.02806,-24.66975 -34.02807,24.66975 a 4.2333333,4.2333333 0 0 1 -6.49552,-4.78367 l 13.2715,-39.30914 -34.39583,-23.5876 a 4.2333333,4.2333333 0 0 1 2.38125,-7.72584 h 42.43387 L 458.9037,83.279976 a 4.2333333,4.2333333 0 0 1 8.05391,0 l 12.80584,39.422914 h 42.43387 a 4.2333333,4.2333333 0 0 1 2.39448,7.72584 l -34.40906,23.57437 13.26356,39.29856 a 4.2333333,4.2333333 0 0 1 -4.00315,5.588 z"
       id="path1-1-0-5"
       style="stroke-width:0.264583;fill:#0367a5;fill-opacity:1" /><path
       d="m 632.86094,199.14663 a 4.2333333,4.2333333 0 0 1 -2.48443,-0.79375 l -34.02806,-24.66975 -34.02807,24.66975 a 4.2333333,4.2333333 0 0 1 -6.49552,-4.78367 l 13.2715,-39.30914 -34.39583,-23.5876 a 4.2333333,4.2333333 0 0 1 2.38125,-7.72584 h 42.43387 l 12.80584,-39.409679 a 4.2333333,4.2333333 0 0 1 8.05391,0 l 12.80584,39.422909 h 42.43387 a 4.2333333,4.2333333 0 0 1 2.39448,7.72584 l -34.40906,23.57437 13.26356,39.29856 a 4.2333333,4.2333333 0 0 1 -4.00315,5.588 z"
       id="path1-1-0-5-3"
       style="stroke-width:0.264583;fill:#0367a5;fill-opacity:1" /></g></svg>
